<svg width="64" height="11" viewBox="0 0 64 11" fill="none" xmlns="http://www.w3.org/2000/svg">
<rect width="64" height="11" fill="#E5E5E5"/>
<rect width="2560" height="2542" transform="translate(-735 -25)" fill="#F8F8F8"/>
<rect x="-735" y="-25" width="2560" height="60" fill="white"/>
<path d="M3.80678 10.588C3.41332 10.588 3.21659 10.4796 3.21659 10.2628V1.33509H0.383715C0.28535 1.33509 0.211578 1.3006 0.162396 1.23162C0.113214 1.16264 0.088623 1.04932 0.088623 0.891659V0.655163C0.088623 0.497499 0.113214 0.384177 0.162396 0.3152C0.211578 0.246222 0.28535 0.211733 0.383715 0.211733H7.30361C7.41181 0.211733 7.48558 0.246222 7.52493 0.3152C7.57411 0.384177 7.59871 0.497499 7.59871 0.655163V0.891659C7.59871 1.04932 7.57411 1.16264 7.52493 1.23162C7.48558 1.3006 7.41181 1.33509 7.30361 1.33509H4.515V10.2628C4.515 10.4796 4.31827 10.588 3.92481 10.588H3.80678ZM9.77985 10.5584C9.62246 10.5584 9.50935 10.5239 9.44049 10.455C9.37163 10.386 9.33721 10.2727 9.33721 10.115V0.655163C9.33721 0.497499 9.37163 0.384177 9.44049 0.3152C9.50935 0.246222 9.62246 0.211733 9.77985 0.211733H14.9292C15.0374 0.211733 15.1111 0.246222 15.1505 0.3152C15.1997 0.384177 15.2243 0.497499 15.2243 0.655163V0.891659C15.2243 1.04932 15.1997 1.16264 15.1505 1.23162C15.1111 1.3006 15.0374 1.33509 14.9292 1.33509H10.6356V4.70515H14.4866C14.5948 4.70515 14.6685 4.73964 14.7079 4.80862C14.7571 4.8776 14.7816 4.99091 14.7816 5.14858V5.38508C14.7816 5.54275 14.7571 5.65606 14.7079 5.72504C14.6685 5.79402 14.5948 5.82851 14.4866 5.82851H10.6356V9.43507H14.944C15.0521 9.43507 15.1259 9.46955 15.1653 9.53854C15.2144 9.60752 15.2391 9.72083 15.2391 9.8785V10.115C15.2391 10.2727 15.2144 10.386 15.1653 10.455C15.1259 10.5239 15.0521 10.5584 14.944 10.5584H9.77985ZM19.5459 10.6471C18.9557 10.6471 18.4098 10.5781 17.9082 10.4402C17.4065 10.3022 17.0278 10.1347 16.7721 9.93762C16.5851 9.79967 16.4917 9.67649 16.4917 9.5681C16.4917 9.44985 16.5556 9.28726 16.6835 9.08033C16.8212 8.87339 16.9294 8.76993 17.0081 8.76993C17.0474 8.76993 17.1507 8.81919 17.318 8.91774C17.6228 9.08525 17.9474 9.22814 18.2918 9.34638C18.6459 9.46463 19.0639 9.52376 19.5459 9.52376C20.1163 9.52376 20.5788 9.36609 20.9329 9.05076C21.2967 8.72558 21.4788 8.30186 21.4788 7.7796C21.4788 7.415 21.3804 7.11445 21.1837 6.87796C20.9869 6.6316 20.7459 6.43945 20.4607 6.3015C20.1852 6.15369 19.782 5.97632 19.2508 5.76938C18.6803 5.54275 18.2278 5.33581 17.8934 5.14858C17.5589 4.96135 17.2737 4.68545 17.0377 4.32085C16.8016 3.9464 16.6835 3.45863 16.6835 2.85753C16.6835 2.32541 16.8163 1.85242 17.0819 1.43856C17.3572 1.02469 17.7409 0.704432 18.2328 0.477791C18.7344 0.241295 19.3099 0.123047 19.9591 0.123047C20.2934 0.123047 20.6673 0.172317 21.0804 0.270857C21.4935 0.359543 21.8131 0.482718 22.0395 0.640382C22.2361 0.75863 22.3345 0.886731 22.3345 1.02469C22.3345 1.13308 22.2705 1.29075 22.1427 1.49768C22.0247 1.70461 21.9312 1.80808 21.8624 1.80808C21.8131 1.80808 21.7393 1.78344 21.6411 1.73418C21.5526 1.68491 21.4935 1.65041 21.464 1.63071C20.9721 1.3745 20.4607 1.2464 19.9296 1.2464C19.359 1.2464 18.8967 1.39421 18.5426 1.68983C18.1982 1.98545 18.0262 2.3944 18.0262 2.91665C18.0262 3.25169 18.1097 3.52267 18.277 3.72961C18.4541 3.93654 18.6508 4.09421 18.8672 4.2026C19.0934 4.30114 19.4819 4.4588 20.0328 4.67559C20.623 4.90223 21.1049 5.12394 21.4788 5.34074C21.8525 5.54767 22.1672 5.85315 22.4231 6.25716C22.6887 6.65132 22.8214 7.1588 22.8214 7.7796C22.8214 8.66646 22.5264 9.36609 21.9362 9.8785C21.346 10.3909 20.5492 10.6471 19.5459 10.6471ZM27.3364 10.588C26.9428 10.588 26.7462 10.4796 26.7462 10.2628V1.33509H23.9133C23.8149 1.33509 23.7411 1.3006 23.692 1.23162C23.6427 1.16264 23.6182 1.04932 23.6182 0.891659V0.655163C23.6182 0.497499 23.6427 0.384177 23.692 0.3152C23.7411 0.246222 23.8149 0.211733 23.9133 0.211733H30.8332C30.9413 0.211733 31.0151 0.246222 31.0545 0.3152C31.1036 0.384177 31.1283 0.497499 31.1283 0.655163V0.891659C31.1283 1.04932 31.1036 1.16264 31.0545 1.23162C31.0151 1.3006 30.9413 1.33509 30.8332 1.33509H28.0446V10.2628C28.0446 10.4796 27.8477 10.588 27.4544 10.588H27.3364ZM35.434 10.588C35.0406 10.588 34.8438 10.4796 34.8438 10.2628V1.33509H32.0109C31.9126 1.33509 31.8389 1.3006 31.7896 1.23162C31.7404 1.16264 31.7158 1.04932 31.7158 0.891659V0.655163C31.7158 0.497499 31.7404 0.384177 31.7896 0.3152C31.8389 0.246222 31.9126 0.211733 32.0109 0.211733H38.9308C39.0391 0.211733 39.1129 0.246222 39.1521 0.3152C39.2014 0.384177 39.2259 0.497499 39.2259 0.655163V0.891659C39.2259 1.04932 39.2014 1.16264 39.1521 1.23162C39.1129 1.3006 39.0391 1.33509 38.9308 1.33509H36.1422V10.2628C36.1422 10.4796 35.9455 10.588 35.552 10.588H35.434ZM39.7392 10.588C39.3163 10.588 39.1048 10.5042 39.1048 10.3367C39.1048 10.2874 39.1195 10.2185 39.149 10.1298L42.6459 0.418667C42.7049 0.261003 42.9017 0.182171 43.236 0.182171H43.6639C44.018 0.182171 44.2149 0.261003 44.2541 0.418667L47.7509 10.1446C47.7804 10.2135 47.7952 10.2776 47.7952 10.3367C47.7952 10.5042 47.5838 10.588 47.1608 10.588H47.0427C46.6985 10.588 46.5018 10.5092 46.4525 10.3515L45.582 7.92741H41.2442L40.4032 10.3515C40.354 10.5092 40.1573 10.588 39.813 10.588H39.7392ZM45.1836 6.80405L43.6344 2.39932C43.5853 2.24165 43.5263 1.95589 43.4574 1.54202H43.4278C43.3492 1.93619 43.2754 2.22195 43.2065 2.39932L41.6573 6.80405H45.1836ZM51.5767 10.6471C50.9865 10.6471 50.4406 10.5781 49.9389 10.4402C49.4372 10.3022 49.0585 10.1347 48.8028 9.93762C48.6158 9.79967 48.5225 9.67649 48.5225 9.5681C48.5225 9.44985 48.5863 9.28726 48.7143 9.08033C48.8519 8.87339 48.9601 8.76993 49.0389 8.76993C49.0781 8.76993 49.1814 8.81919 49.3487 8.91774C49.6535 9.08525 49.9781 9.22814 50.3225 9.34638C50.6766 9.46463 51.0946 9.52376 51.5767 9.52376C52.1471 9.52376 52.6095 9.36609 52.9636 9.05076C53.3274 8.72558 53.5095 8.30186 53.5095 7.7796C53.5095 7.415 53.4111 7.11445 53.2144 6.87796C53.0176 6.6316 52.7766 6.43945 52.4914 6.3015C52.216 6.15369 51.8127 5.97632 51.2816 5.76938C50.711 5.54275 50.2585 5.33581 49.924 5.14858C49.5897 4.96135 49.3045 4.68545 49.0684 4.32085C48.8323 3.9464 48.7143 3.45863 48.7143 2.85753C48.7143 2.32541 48.8471 1.85242 49.1126 1.43856C49.388 1.02469 49.7716 0.704432 50.2635 0.477791C50.7651 0.241295 51.3406 0.123047 51.9898 0.123047C52.3241 0.123047 52.698 0.172317 53.1111 0.270857C53.5243 0.359543 53.8438 0.482718 54.0702 0.640382C54.2669 0.75863 54.3653 0.886731 54.3653 1.02469C54.3653 1.13308 54.3012 1.29075 54.1735 1.49768C54.0554 1.70461 53.9619 1.80808 53.8931 1.80808C53.8438 1.80808 53.7701 1.78344 53.6718 1.73418C53.5833 1.68491 53.5243 1.65041 53.4948 1.63071C53.0028 1.3745 52.4914 1.2464 51.9603 1.2464C51.3897 1.2464 50.9275 1.39421 50.5733 1.68983C50.229 1.98545 50.0569 2.3944 50.0569 2.91665C50.0569 3.25169 50.1404 3.52267 50.3078 3.72961C50.4848 3.93654 50.6815 4.09421 50.8979 4.2026C51.1241 4.30114 51.5126 4.4588 52.0636 4.67559C52.6537 4.90223 53.1356 5.12394 53.5095 5.34074C53.8832 5.54767 54.198 5.85315 54.4538 6.25716C54.7194 6.65132 54.8522 7.1588 54.8522 7.7796C54.8522 8.66646 54.5571 9.36609 53.9669 9.8785C53.3767 10.3909 52.58 10.6471 51.5767 10.6471ZM57.3752 10.588C56.9817 10.588 56.785 10.4796 56.785 10.2628V0.507353C56.785 0.290565 56.9817 0.182171 57.3752 0.182171H57.4932C57.8866 0.182171 58.0834 0.290565 58.0834 0.507353V5.03033H58.1424L61.7721 0.389105C61.8802 0.251148 62.1458 0.182171 62.5688 0.182171H62.7164C62.8835 0.182171 63.0115 0.201879 63.1 0.241295C63.1885 0.270857 63.2328 0.3152 63.2328 0.374324C63.2328 0.46301 63.1835 0.56155 63.0852 0.669944L59.3966 5.28161L63.8672 10.1446C63.9557 10.2431 64 10.3219 64 10.3811C64 10.4599 63.9507 10.5141 63.8525 10.5436C63.7541 10.5732 63.5869 10.588 63.3508 10.588H63.1738C62.9573 10.588 62.7851 10.5781 62.6573 10.5584C62.5393 10.5387 62.4409 10.4845 62.3623 10.3958L58.1424 5.63636H58.0834V10.2628C58.0834 10.4796 57.8866 10.588 57.4932 10.588H57.3752Z" fill="black" fill-opacity="0.87"/>
</svg>
